<svg width="16" height="16" viewBox="0 0 16 16" fill="none" xmlns="http://www.w3.org/2000/svg">
<path d="M4.19995 2.89999H14V1.89999H4.19995V2.89999ZM14 5.89999H4.19995V6.89999H14V5.89999ZM3.69995 5.39999V3.39999H2.69995V5.39999H3.69995ZM4.19995 5.89999C3.92381 5.89999 3.69995 5.67614 3.69995 5.39999H2.69995C2.69995 6.22842 3.37153 6.89999 4.19995 6.89999V5.89999ZM4.19995 1.89999C3.37152 1.89999 2.69995 2.57157 2.69995 3.39999H3.69995C3.69995 3.12385 3.92381 2.89999 4.19995 2.89999V1.89999Z" fill="#2B2B2B"/>
<line x1="6.09985" y1="4.29999" x2="12.8699" y2="4.29999" stroke="#2B2B2B" stroke-linecap="round"/>
<path d="M13.1 6.39984V12.6H14.1V6.39984H13.1ZM12.6 13.1H4.19995V14.1H12.6V13.1ZM3.69995 12.6V4.36H2.69995V12.6H3.69995ZM4.19995 13.1C3.92381 13.1 3.69995 12.8761 3.69995 12.6H2.69995C2.69995 13.4284 3.37153 14.1 4.19995 14.1V13.1ZM13.1 12.6C13.1 12.8761 12.8761 13.1 12.6 13.1V14.1C13.4284 14.1 14.1 13.4284 14.1 12.6H13.1Z" fill="#2B2B2B"/>
</svg>
