<svg width="96" height="95" viewBox="0 0 96 95" fill="none" xmlns="http://www.w3.org/2000/svg">
<path fill-rule="evenodd" clip-rule="evenodd" d="M29.9537 1.57098C29.0435 1.81015 28.2588 2.34921 27.7247 3.07366C28.0959 1.8171 29.1615 0.861121 30.4759 0.65286L29.9537 1.57098ZM30.7105 1.44549C30.8114 1.43818 30.9134 1.43446 31.0162 1.43446H32.5111L32.981 0.610493H31.1853L30.7105 1.44549ZM34.9928 1.43446H33.1969L33.6668 0.610493H35.4627L34.9928 1.43446ZM35.6786 1.43446H37.4744L37.9443 0.610493H36.1485L35.6786 1.43446ZM39.9562 1.43446H38.1602L38.6301 0.610493H40.4261L39.9562 1.43446ZM40.642 1.43446H42.4375L42.9061 0.610493H41.1119L40.642 1.43446ZM44.9192 1.43446H43.1228L43.5914 0.610493H45.3878L44.9192 1.43446ZM45.6045 1.43446H47.4009L47.8695 0.610493H46.0731L45.6045 1.43446ZM49.8805 1.43446H48.0863L48.5549 0.610493H50.3504L49.8805 1.43446ZM50.5663 1.43446H52.3623L52.8322 0.610493H51.0362L50.5663 1.43446ZM54.844 1.43446H53.0481L53.518 0.610493H55.3139L54.844 1.43446ZM55.5298 1.43446H57.3256L57.7955 0.610493H55.9997L55.5298 1.43446ZM59.8069 1.43446H58.0115L58.4813 0.610493H60.2755L59.8069 1.43446ZM60.4923 1.43446H62.2887L62.7573 0.610493H60.9608L60.4923 1.43446ZM64.7703 1.43446H62.974L63.4426 0.610493H64.8712C64.9919 0.610493 65.1112 0.616534 65.2288 0.628331L64.7703 1.43446ZM65.4348 1.4711C66.5992 1.6237 67.6141 2.24239 68.2638 3.12996C67.9152 1.98019 67.0018 1.07726 65.8468 0.746687L65.4348 1.4711ZM68.4166 33.5848V5.22293C68.3048 3.45198 66.7727 2.03182 64.8712 2.03182H31.0162C29.1761 2.03182 27.6934 3.40766 27.5834 5.12054V33.5848H39.0531C39.9155 33.5848 40.6152 34.2871 40.6152 35.1526V38.2344L40.905 38.6473L40.6152 38.8522V39.2395C40.6152 39.7011 40.9886 40.0758 41.4485 40.0758H54.6235C55.0834 40.0758 55.4569 39.7011 55.4569 39.2395V35.1526C55.4569 34.2871 56.1566 33.5848 57.019 33.5848H68.4166ZM39.8864 37.0965V38.6207L37.5154 40.297V38.6801L39.8864 37.0965ZM37.5154 42.1123V41.0438L39.8912 39.3641C39.9262 39.8097 40.147 40.2031 40.4759 40.4662L37.6087 42.5997C37.5485 42.449 37.5154 42.2844 37.5154 42.1123ZM37.9598 43.0985C38.1907 43.3029 38.4938 43.427 38.8254 43.427H57.2465C57.5985 43.427 57.9184 43.2871 58.1539 43.0598L55.4996 40.5375C55.2497 40.7078 54.9482 40.8073 54.6235 40.8073H41.4485C41.3264 40.8073 41.2076 40.7932 41.0935 40.7666L37.9598 43.0985ZM58.5564 42.1123C58.5564 42.2603 58.532 42.4026 58.4869 42.5355L55.9273 40.1032C56.0906 39.8555 56.1857 39.5586 56.1857 39.2395V39.058L58.5564 41.1363V42.1123ZM56.1857 38.2474L58.5564 40.3257V38.8607L56.1857 36.9547V38.2474ZM58.5564 37.6744V38.0785L56.1857 36.1725V35.1526C56.1857 35.068 56.1982 34.9864 56.2215 34.9095L58.776 36.7752C58.6358 37.0439 58.5564 37.3497 58.5564 37.6744ZM56.5991 34.4302L59.1394 36.2856C59.4881 35.9441 59.9649 35.7339 60.4899 35.7339H76.9419C77.7125 35.7339 78.2423 35.1041 78.2423 34.4216H78.2568V34.4214H78.2423C78.2423 34.3003 78.2257 34.1795 78.1896 34.062L78.2033 34.0578L78.2026 34.0556L78.2019 34.0531C78.1546 33.8905 78.0697 33.729 77.9408 33.5765L77.9402 33.5757L69.0249 22.9652V25.7177L70.0994 27.1151H70.158V27.1914L73.5527 31.6062C74.0815 32.1361 74.1324 32.8328 73.8237 33.3882C73.5186 33.9373 72.8854 34.3163 72.1128 34.3163H57.019C56.8659 34.3163 56.7224 34.3578 56.5991 34.4302ZM69.0249 26.915L69.1788 27.1151H69.0249V26.915ZM69.0249 28.4712V27.8755H69.7635L70.2215 28.4712H69.0249ZM69.0249 29.2316V29.8291H71.2657L70.8062 29.2316H69.0249ZM69.0249 31.1852V30.5895H71.8503L72.3084 31.1852H69.0249ZM69.0249 31.9456V32.5412H73.2729C73.2444 32.395 73.166 32.2483 73.0258 32.112L73.0069 32.0937L72.9909 32.0728L72.793 31.8155V31.9456H69.0249ZM69.0249 33.5848V33.3016H72.9604C72.7608 33.4679 72.473 33.5848 72.1128 33.5848H69.0249ZM39.8864 36.3632V35.1526C39.8864 35.0578 39.8706 34.9667 39.8416 34.8818L37.2311 36.5178C37.4108 36.7918 37.5154 37.1199 37.5154 37.4724V37.9467L39.8864 36.3632ZM39.4416 34.4127L36.8025 36.0667C36.5165 35.8574 36.1642 35.7339 35.7831 35.7339H19.058C18.2871 35.7339 17.7577 35.1038 17.7577 34.424H17.7432L17.7432 34.4238H17.7577C17.7577 34.3001 17.7744 34.1813 17.8112 34.0671L17.7976 34.0627L17.799 34.0581L17.8005 34.0532C17.8486 33.8878 17.9318 33.7258 18.059 33.5772L18.0598 33.5762L26.9751 23.3377V25.1982L21.9485 31.6021C21.7134 31.835 21.5173 32.1137 21.3969 32.4074C21.2745 32.7062 21.2198 33.0484 21.3204 33.3753C21.4251 33.7157 21.6798 33.9809 22.0592 34.1411C22.4252 34.2958 22.9098 34.3558 23.5185 34.3163H39.0531C39.1933 34.3163 39.3256 34.3511 39.4416 34.4127ZM17.0144 34.424L17.0144 34.4238H17C17 34.2302 17.0264 34.0316 17.0902 33.8333L17.1039 33.8378C17.1807 33.5792 17.312 33.3269 17.5075 33.099L17.5093 33.0969L26.9751 22.2262V4.05562C26.9751 1.81471 28.7833 0 31.0162 0H64.8712C67.1662 0 69.0249 1.86507 69.0249 4.1662V21.8306L78.4967 33.1034L78.497 33.1037C78.6876 33.3294 78.8225 33.5794 78.8999 33.8427L78.9138 33.8384C78.9736 34.0334 79 34.23 79 34.4214H78.9856V34.4216H79V65.5209C79 67.9955 77.0026 70 74.5369 70H21.4631C18.9974 70 17 67.9955 17 65.5209V34.424H17.0144ZM25.8014 27.8755L25.3338 28.4712H26.9751V27.8755H25.8014ZM24.2679 29.8291L24.737 29.2316H26.9751V29.8291H24.2679ZM23.6711 30.5895L23.2035 31.1852H26.9751V30.5895H23.6711ZM22.5064 32.0733L22.6067 31.9456H26.9751V32.5412H22.1404C22.2224 32.3923 22.3363 32.2433 22.4737 32.1096L22.4913 32.0925L22.5064 32.0733ZM22.0964 33.3016C22.1473 33.36 22.2244 33.4173 22.342 33.467C22.5665 33.5619 22.9289 33.6226 23.4823 33.5856L23.4944 33.5848H23.5065H26.9751V33.3016H22.0964ZM26.3983 27.1151H26.9751V26.3802L26.3983 27.1151ZM76.9419 36.4943C77.4564 36.4943 77.9 36.3174 78.2423 36.0343V65.5209C78.2423 67.5755 76.5842 69.2396 74.5369 69.2396H21.4631C19.4158 69.2396 17.7577 67.5755 17.7577 65.5209V36.0344C18.1 36.3174 18.5437 36.4943 19.058 36.4943H35.7831C36.3213 36.4943 36.7578 36.9323 36.7578 37.4724V42.1123C36.7578 43.2575 37.6843 44.1874 38.8254 44.1874H57.2465C58.3875 44.1874 59.3141 43.2575 59.3141 42.1123V37.6744C59.3141 37.0216 59.8412 36.4943 60.4899 36.4943H76.9419ZM60.2217 10.8133H35.7785V10.2028H60.2217V10.8133ZM35.7785 18.9872H60.2217V18.3767H35.7785V18.9872ZM60.2217 27.1611H35.7785V26.5506H60.2217V27.1611Z" fill="#666666"/>
<path d="M6.012 85.528C5.46 85.576 4.872 85.624 4.248 85.672V84.724H6.12V84.016H4.248V83.224H3.456V84.016H2.064C2.364 83.62 2.652 83.164 2.916 82.66H6.204V81.892H3.276C3.372 81.676 3.456 81.46 3.54 81.244L2.676 81.1C2.58 81.364 2.472 81.628 2.364 81.892H0.696V82.66H1.98C1.692 83.2 1.368 83.656 1.032 84.04L1.224 84.724H3.456V85.72C2.64 85.768 1.764 85.804 0.852 85.852L0.96 86.62C1.824 86.572 2.664 86.512 3.456 86.464V87.328H4.248V86.404C4.86 86.344 5.448 86.284 6.012 86.236V85.528ZM7.692 84.736H9.252V87.34H10.08V84.736H11.352V83.98H7.752V82.732C9.048 82.588 10.128 82.312 11.016 81.928L10.464 81.28C9.624 81.664 8.448 81.928 6.96 82.072V83.956C6.936 85.036 6.648 85.96 6.12 86.74L6.72 87.364C7.236 86.62 7.56 85.744 7.692 84.736ZM10.008 87.688H2.136V92.2H3.024V91.732H9.12V92.2H10.008V87.688ZM3.024 90.988V90.052H9.12V90.988H3.024ZM3.024 89.356V88.42H9.12V89.356H3.024ZM13.596 81.844V82.684H17.04V83.488C17.028 84.232 16.98 84.94 16.884 85.588H12.792V86.416H16.74C16.584 87.172 16.368 87.856 16.08 88.456C15.432 89.68 14.292 90.652 12.636 91.396L13.116 92.164C14.784 91.444 15.984 90.424 16.728 89.128C17.136 88.36 17.436 87.46 17.628 86.416H18.6V90.784C18.6 91.6 18.984 92.008 19.776 92.008H21.72C22.224 92.008 22.584 91.9 22.812 91.684C23.076 91.42 23.256 90.712 23.352 89.536L22.536 89.272C22.476 90.208 22.368 90.76 22.2 90.952C22.068 91.108 21.852 91.192 21.564 91.192H20.04C19.656 91.192 19.464 90.988 19.464 90.604V86.416H23.184V85.588H17.76C17.844 84.94 17.892 84.232 17.916 83.488V82.684H22.212V81.844H13.596ZM26.484 84.76V85.576H29.628V90.808C29.508 90.784 29.388 90.748 29.28 90.712C28.416 90.436 27.696 89.788 27.12 88.756C27.336 88.132 27.528 87.448 27.672 86.704L26.832 86.56C26.424 88.624 25.656 90.268 24.504 91.492L25.056 92.176C25.74 91.48 26.316 90.616 26.784 89.584C27.276 90.364 27.924 90.94 28.716 91.312C29.772 91.756 31.5 91.984 33.924 91.984H35.268L35.424 91.12C34.776 91.168 34.152 91.192 33.54 91.192C32.34 91.18 31.332 91.108 30.492 90.988V88.504H34.068V87.688H30.492V85.576H33.54V84.76H26.484ZM34.908 82.42H30.552C30.384 81.928 30.192 81.484 30 81.088L29.076 81.232C29.292 81.592 29.496 81.988 29.676 82.42H25.092V85.036H25.932V83.212H34.068V84.976H34.908V82.42ZM41.052 81.196L40.236 81.568C40.98 82.408 41.652 83.368 42.264 84.448L43.044 84.052C42.468 83.02 41.808 82.06 41.052 81.196ZM45.228 81.76C44.724 84.364 43.668 86.5 42.06 88.168C40.548 86.752 39.372 84.976 38.532 82.852L37.74 83.296C38.64 85.456 39.864 87.28 41.424 88.78C40.128 89.908 38.532 90.784 36.636 91.396L37.116 92.176C39.084 91.528 40.752 90.604 42.108 89.392C43.476 90.544 45.072 91.468 46.92 92.164L47.46 91.36C45.66 90.736 44.1 89.872 42.756 88.768C44.436 87.028 45.54 84.76 46.08 81.952L45.228 81.76ZM53.688 81.232C52.296 82.744 50.544 84.016 48.432 85.036L48.852 85.792C50.976 84.724 52.692 83.464 54 82.012C55.416 83.536 57.108 84.772 59.1 85.732L59.532 84.964C57.564 84.052 55.824 82.816 54.312 81.232H53.688ZM50.652 85.024V85.852H53.556V87.94H50.076V88.768H53.556V90.988H49.008V91.84H59.004V90.988H54.444V88.768H57.912V87.94H54.444V85.852H57.348V85.024H50.652ZM63.96 87.496V90.52H68.196V87.496H63.96ZM67.416 89.788H64.74V88.216H67.416V89.788ZM69.42 82.48V83.8H62.844V82.48H69.42ZM62.844 84.58H70.26V81.664H62.004V86.368C61.992 88.48 61.5 90.208 60.516 91.54L61.188 92.14C62.268 90.544 62.82 88.636 62.844 86.416H70.008C69.984 88.876 69.948 90.34 69.876 90.82C69.792 91.204 69.528 91.396 69.096 91.396C68.64 91.396 68.1 91.384 67.464 91.36L67.656 92.092C68.388 92.116 68.904 92.128 69.204 92.128C70.068 92.128 70.56 91.792 70.668 91.132C70.788 90.436 70.848 88.6 70.848 85.636H62.844V84.58ZM81.168 83.752L80.592 84.304C81.552 84.952 82.308 85.576 82.86 86.152L83.46 85.552C82.836 84.952 82.08 84.352 81.168 83.752ZM78.12 81.052L77.184 81.196C77.352 81.508 77.508 81.868 77.652 82.252H72.84V83.092H76.164V86.332H77.028V83.092H78.984V86.332H79.848V83.092H83.16V82.252H78.528C78.396 81.808 78.264 81.412 78.12 81.052ZM74.844 83.788C74.22 84.436 73.464 85 72.552 85.48L73.08 86.176C74.028 85.648 74.832 85.036 75.48 84.352L74.844 83.788ZM73.656 86.968V87.736H74.604C75.276 88.648 76.14 89.428 77.208 90.1C75.888 90.664 74.376 91.072 72.648 91.324L73.044 92.14C74.964 91.816 76.656 91.3 78.096 90.592C79.476 91.288 81.156 91.804 83.136 92.14L83.532 91.348C81.768 91.108 80.232 90.7 78.936 90.136C80.088 89.452 81.06 88.612 81.852 87.628V86.968H73.656ZM75.564 87.736H80.688C79.944 88.492 79.068 89.152 78.036 89.704C77.04 89.164 76.212 88.504 75.564 87.736ZM85.836 86.224V89.284H89.556V89.956H85.536V90.532H89.556V91.24H84.636V91.912H95.364V91.24H90.42V90.532H94.488V89.956H90.42V89.284H94.188V86.224H85.836ZM93.36 88.744H90.42V88.012H93.36V88.744ZM89.556 88.744H86.664V88.012H89.556V88.744ZM86.664 87.508V86.764H89.556V87.508H86.664ZM90.42 86.764H93.36V87.508H90.42V86.764ZM86.1 81.388V84.352H93.936V81.388H86.1ZM93.096 83.836H86.94V83.128H93.096V83.836ZM86.94 82.612V81.916H93.096V82.612H86.94ZM84.624 84.976V85.624H95.376V84.976H84.624Z" fill="#666666"/>
</svg>
