<svg width="16" height="16" viewBox="0 0 16 16" fill="none" xmlns="http://www.w3.org/2000/svg">
<path d="M6.66659 12C7.8499 11.9998 8.99912 11.6036 9.93125 10.8747L12.8619 13.8053L13.8046 12.8627L10.8739 9.93201C11.6033 8.99979 11.9996 7.8503 11.9999 6.66668C11.9999 3.72601 9.60725 1.33334 6.66659 1.33334C3.72592 1.33334 1.33325 3.72601 1.33325 6.66668C1.33325 9.60734 3.72592 12 6.66659 12ZM6.66659 2.66668C8.87259 2.66668 10.6666 4.46068 10.6666 6.66668C10.6666 8.87268 8.87259 10.6667 6.66659 10.6667C4.46059 10.6667 2.66659 8.87268 2.66659 6.66668C2.66659 4.46068 4.46059 2.66668 6.66659 2.66668Z" fill="#2B2B2B"/>
</svg>
