<svg width="16" height="16" viewBox="0 0 16 16" fill="none" xmlns="http://www.w3.org/2000/svg">
<path d="M8.11867 4.66669C7.44667 4.66669 6.924 4.87202 6.55067 5.28269C6.17733 5.67469 6 6.19735 6 6.85069H6.73733C6.73733 6.39335 6.84 6.03869 7.04533 5.77735C7.26933 5.46935 7.61467 5.32002 8.08133 5.32002C8.47333 5.32002 8.78133 5.42269 8.996 5.64669C9.20133 5.85202 9.31333 6.14135 9.31333 6.51469C9.31333 6.77602 9.22 7.01869 9.03333 7.25202C8.97733 7.32669 8.86533 7.43869 8.716 7.58802C8.212 8.03602 7.904 8.39069 7.77333 8.67069C7.66133 8.90402 7.60533 9.17469 7.60533 9.48269V9.69735H8.352V9.48269C8.352 9.23069 8.408 9.00669 8.52933 8.80135C8.62267 8.63335 8.76267 8.46535 8.968 8.28802C9.37867 7.92402 9.63067 7.68135 9.724 7.56935C9.95733 7.26135 10.0787 6.89735 10.0787 6.47735C10.0787 5.91735 9.90133 5.47869 9.556 5.16135C9.192 4.82535 8.716 4.66669 8.11867 4.66669ZM7.97867 10.3507C7.82 10.3507 7.68933 10.3974 7.57733 10.5094C7.46533 10.612 7.41867 10.7427 7.41867 10.9014C7.41867 11.06 7.46533 11.1907 7.57733 11.3027C7.68933 11.4054 7.82 11.4614 7.97867 11.4614C8.13733 11.4614 8.268 11.4054 8.38 11.3027C8.492 11.2 8.548 11.0694 8.548 10.9014C8.548 10.7427 8.492 10.612 8.38933 10.5094C8.27733 10.3974 8.13733 10.3507 7.97867 10.3507Z" fill="#999999"/>
<circle cx="8" cy="8" r="5.5" stroke="#999999"/>
</svg>
